<?xml version="1.0" encoding="utf-8"?>
<!-- Generator: Adobe Illustrator 26.4.1, SVG Export Plug-In . SVG Version: 6.00 Build 0)  -->
<svg version="1.1" id="Layer_1" xmlns="http://www.w3.org/2000/svg" xmlns:xlink="http://www.w3.org/1999/xlink" x="0px" y="0px"
	 viewBox="0 0 1000 1000" style="enable-background:new 0 0 1000 1000;" xml:space="preserve">
<g>
	<path d="M472.09,572.28c3.74,0,3.75-0.01,1.89-3.25c-48.36-83.99-96.72-167.97-145.09-251.95c-0.31-0.54-0.4-1.38-1.4-1.43
		c-0.33,0.55-0.69,1.13-1.03,1.72c-48.37,83.98-96.73,167.97-145.11,251.94c-0.46,0.8-0.6,1.92-1.75,2.2c0,0.2,0,0.4,0,0.59
		c1.08,0.06,2.17,0.16,3.25,0.16C279.25,572.28,375.67,572.28,472.09,572.28z M404.35,477.23c1.32,0.26,1.43,1.28,1.83,1.97
		c14.77,25.52,29.51,51.06,44.24,76.6c0.69,1.2,2.13,2.57-1,2.56c-29.81-0.05-59.62-0.03-89.43-0.03c-0.35,0-0.7-0.06-1.06-0.09
		c14.57-8.4,27.28-18.54,35.66-33.32C402.98,510.14,405.38,494.07,404.35,477.23z M334.9,358.26c0-0.35,0.1-0.7,0.78-1.23
		c13.14,22.76,26.29,45.53,39.44,68.31c-0.85,0.44-1.17-0.05-1.53-0.32c-10.76-7.97-22.77-12.88-36.04-14.65
		c-1.73-0.23-2.7-0.69-2.69-2.67C334.91,391.23,334.89,374.75,334.9,358.26z M338.14,424.41c25.73,3.93,47.17,25.53,51.69,52.3
		c5.39,31.9-15.28,63.51-46.63,71.32c-1.72,0.43-3.54,0.54-5.2,1.1c-2.76,0.94-3.25-0.32-3.14-2.69c0.12-2.46,0.02-4.94,0.02-7.4
		c0-17.47,0-34.95,0-52.43c0-19.75,0.04-39.49-0.04-59.24C334.83,424.84,335.23,423.96,338.14,424.41z M320.38,356.14
		c1.23,0.27,0.84,1.13,0.84,1.7c0.03,16.39,0.01,32.78,0.04,49.16c0,1.79-0.32,3.04-2.46,3.26c-13.04,1.3-24.87,5.85-35.59,13.35
		c-0.37,0.26-0.83,0.41-1.24,0.61c-0.12-0.14-0.24-0.29-0.36-0.43C294.53,401.23,307.46,378.67,320.38,356.14z M313.68,425.16
		c7.56-1.6,7.56-1.6,7.56,6.22c0,18.47,0,36.94,0,55.41c0,19.56,0,39.11,0,58.67c0,4.49,0,4.49-4.35,3.71
		c-28.23-5.1-49.02-27-52.44-55.24C260.62,462.21,282.4,431.79,313.68,425.16z M206.15,555.45c14.17-24.75,28.34-49.5,42.52-74.24
		c0.23-0.41,0.52-0.78,1.14-1.29c-0.83,35.5,14.51,61.41,45.95,77.81c-1.03,0.91-1.85,0.57-2.58,0.57
		c-28.45,0.02-56.89,0.02-85.34,0.02C204.52,558.33,204.51,558.32,206.15,555.45z"/>
	<path d="M415.99,433.35c1.43,1.54,3.17,2.75,5.21,3.62c2.04,0.88,4.34,1.31,6.89,1.31c1.64,0,3.3-0.25,4.98-0.76
		c1.67-0.5,3.16-1.27,4.46-2.31c1.3-1.04,2.36-2.32,3.18-3.86c0.82-1.54,1.23-3.37,1.23-5.49c0-1.49-0.21-2.75-0.64-3.78
		c-0.43-1.04-0.94-1.87-1.55-2.51s-1.27-1.1-1.99-1.39c-0.72-0.29-1.39-0.44-2.03-0.44c-0.8,0-1.5,0.23-2.11,0.68
		c-0.61,0.45-1.26,0.93-1.95,1.43c-0.69,0.5-1.46,0.98-2.31,1.43c-0.85,0.45-1.94,0.68-3.26,0.68c-0.27,0-0.7-0.07-1.31-0.2
		c-0.61-0.13-1.21-0.45-1.79-0.96c-0.58-0.5-1.1-1.26-1.55-2.27c-0.45-1.01-0.68-2.36-0.68-4.06c0-1.96,0.48-3.79,1.43-5.49
		c0.96-1.7,2.19-3.24,3.7-4.62c1.51-1.38,3.24-2.61,5.17-3.7c1.94-1.09,3.86-2,5.77-2.75c1.91-0.74,3.73-1.3,5.45-1.67
		c1.72-0.37,3.17-0.56,4.34-0.56c0.8,0,1.53,0.07,2.19,0.2c0.66,0.13,1.23,0.4,1.71,0.8s0.85,0.94,1.11,1.63
		c0.26,0.69,0.4,1.62,0.4,2.79v90.44c0,3.45,0.38,6.28,1.15,8.48c0.77,2.2,2.19,3.94,4.26,5.21c2.07,1.27,4.91,2.16,8.52,2.67
		c3.61,0.5,8.25,0.76,13.93,0.76c7.64,0,14.49-0.41,20.54-1.23s11.49-2.08,16.32-3.78c1.33-0.48,2.2-1.18,2.63-2.11
		c0.42-0.93,0.64-2.45,0.64-4.58c0-1.22-0.29-2.15-0.88-2.79c-0.58-0.64-1.38-0.96-2.39-0.96c-0.8,0-1.92,0.37-3.38,1.11
		c-1.46,0.74-3.25,1.55-5.37,2.43c-2.12,0.88-4.59,1.67-7.4,2.39c-2.81,0.72-5.97,1.08-9.47,1.08c-2.18,0-4.07-0.15-5.69-0.44
		c-1.62-0.29-2.96-0.84-4.02-1.63c-1.06-0.8-1.87-1.9-2.43-3.3c-0.56-1.41-0.84-3.25-0.84-5.53v-89.88c0-0.85-0.11-1.91-0.32-3.18
		c-0.21-1.27-0.89-2.49-2.03-3.66c-1.14-1.17-2.92-2.16-5.33-2.99c-2.42-0.82-5.8-1.23-10.15-1.23c-3.93,0-7.86,0.31-11.78,0.92
		c-3.93,0.61-7.7,1.53-11.31,2.75c-3.61,1.22-6.97,2.75-10.07,4.58c-3.11,1.83-5.81,3.97-8.12,6.41c-2.31,2.44-4.13,5.19-5.45,8.24
		c-1.33,3.05-1.99,6.41-1.99,10.07c0,2.34,0.37,4.54,1.11,6.61S414.55,431.81,415.99,433.35z"/>
	<path d="M519.48,433.51c0.64-0.32,1.41-0.48,2.31-0.48c1.7,0,2.91,0.58,3.62,1.75c0.72,1.17,1.26,2.81,1.63,4.94
		c0.32,2.34,0.64,5.1,0.96,8.28c0.32,3.18,0.72,6.61,1.19,10.27s1.06,7.46,1.75,11.38c0.69,3.93,1.55,7.75,2.59,11.46
		c1.04,3.72,2.27,7.25,3.7,10.59s3.13,6.28,5.09,8.8c1.96,2.52,4.23,4.51,6.81,5.97c2.57,1.46,5.53,2.19,8.88,2.19
		c2.71,0,5.23-0.58,7.56-1.75c2.33-1.17,4.47-2.79,6.41-4.86c1.94-2.07,3.7-4.5,5.29-7.28c1.59-2.79,3-5.8,4.22-9.04
		c1.06,3.18,2.29,6.17,3.7,8.96c1.41,2.79,3.04,5.21,4.9,7.28c1.86,2.07,3.97,3.7,6.33,4.9c2.36,1.19,5.03,1.79,8,1.79
		c3.77,0,7.14-1.07,10.11-3.22c2.97-2.15,5.6-5.02,7.88-8.6c2.28-3.58,4.23-7.68,5.85-12.3c1.62-4.62,2.95-9.39,3.98-14.33
		c1.04-4.94,1.79-9.84,2.27-14.73c0.48-4.88,0.72-9.37,0.72-13.46c0-2.87-0.09-5.56-0.28-8.08c-0.19-2.52-0.52-4.55-1-6.09
		c-0.43-1.22-0.98-2.04-1.67-2.47c-0.69-0.42-1.81-0.64-3.34-0.64c-0.58,0-1.34,0.08-2.27,0.24c-0.93,0.16-1.83,0.43-2.71,0.8
		c-0.88,0.37-1.63,0.82-2.27,1.35c-0.64,0.53-0.96,1.19-0.96,1.99c0,0.85,0.24,1.77,0.72,2.75c0.48,0.98,1,2.23,1.55,3.74
		s1.08,3.41,1.55,5.69c0.48,2.28,0.72,5.18,0.72,8.68c0,5.09-0.31,10.03-0.92,14.81c-0.61,4.78-1.47,9-2.59,12.66
		c-1.12,3.66-2.44,6.61-3.98,8.84c-1.54,2.23-3.21,3.34-5.02,3.34c-1.7,0-3.17-1.13-4.42-3.38c-1.25-2.26-2.4-5.53-3.46-9.83
		c-1.06-4.3-2.07-9.58-3.03-15.84c-0.96-6.26-1.94-13.38-2.95-21.34c-0.37-2.92-0.88-5.32-1.51-7.2c-0.64-1.88-1.47-3.37-2.51-4.46
		c-1.03-1.09-2.34-1.83-3.9-2.23c-1.57-0.4-3.49-0.6-5.77-0.6c-5.2,0-8.67,1.25-10.39,3.74c-1.73,2.5-2.19,6.24-1.39,11.23
		c0.32,1.75,0.61,3.77,0.88,6.05c0.26,2.28,0.54,4.74,0.84,7.36c0.29,2.63,0.62,5.37,1,8.24c0.37,2.87,0.82,5.76,1.35,8.68
		c-0.64,2.92-1.38,5.59-2.23,8c-0.85,2.42-1.75,4.47-2.71,6.17c-0.96,1.7-1.96,3.03-3.03,3.98s-2.15,1.43-3.26,1.43
		c-1.7,0-3.17-1.05-4.42-3.14c-1.25-2.1-2.4-5.2-3.46-9.31c-1.06-4.11-2.06-9.22-2.99-15.33c-0.93-6.1-1.87-13.16-2.83-21.18
		c-0.21-1.49-0.56-3.16-1.04-5.02c-0.48-1.86-1.29-3.59-2.43-5.21c-1.14-1.62-2.69-2.97-4.66-4.06c-1.96-1.09-4.54-1.63-7.72-1.63
		c-2.23,0-4.35,0.24-6.37,0.72c-2.02,0.48-3.9,1.09-5.65,1.83c-1.75,0.74-3.38,1.61-4.9,2.59c-1.51,0.98-2.88,1.98-4.1,2.99
		l1.67,1.99C518.16,434.28,518.85,433.83,519.48,433.51z"/>
	<path d="M650.33,503.69c1.88,1.73,4.02,2.99,6.41,3.78c2.39,0.8,4.86,1.19,7.4,1.19c1.96,0,3.91-0.21,5.85-0.64
		s3.86-1.11,5.77-2.07c1.91-0.96,3.78-2.2,5.61-3.74c1.83-1.54,3.6-3.45,5.29-5.73c0.8,4.14,2.49,7.21,5.09,9.2
		c2.6,1.99,5.57,2.99,8.92,2.99c2.71,0,5.12-0.4,7.24-1.19c2.12-0.8,3.98-1.78,5.57-2.95c1.59-1.17,2.95-2.41,4.06-3.74
		c1.11-1.33,2.07-2.55,2.87-3.66l-1.99-1.67c-0.64,0.74-1.37,1.47-2.19,2.19c-0.82,0.72-1.71,1.08-2.67,1.08
		c-0.8,0-1.41-0.16-1.83-0.48s-0.74-0.72-0.96-1.19c-0.21-0.48-0.35-1.01-0.4-1.59s-0.08-1.12-0.08-1.59v-44.98
		c0-4.3-0.86-7.96-2.59-10.99c-1.72-3.03-4.03-5.52-6.93-7.48c-2.89-1.96-6.22-3.4-9.99-4.3c-3.77-0.9-7.72-1.35-11.86-1.35
		c-3.45,0-6.9,0.36-10.35,1.07c-3.45,0.72-6.54,1.82-9.28,3.3c-2.73,1.49-4.95,3.38-6.65,5.69c-1.7,2.31-2.55,5.08-2.55,8.32
		c0,3.34,0.92,6.02,2.75,8.04c1.83,2.02,4.23,3.03,7.21,3.03c1.11,0,2.19-0.2,3.22-0.6c1.03-0.4,1.94-0.96,2.71-1.67
		s1.38-1.54,1.83-2.47c0.45-0.93,0.68-1.95,0.68-3.07c0-1.7-0.41-2.96-1.23-3.78c-0.82-0.82-1.74-1.46-2.75-1.91
		c-1.01-0.45-1.92-0.85-2.75-1.19c-0.82-0.34-1.23-0.92-1.23-1.71c0-0.69,0.32-1.42,0.96-2.19c0.64-0.77,1.51-1.47,2.63-2.11
		c1.11-0.64,2.44-1.17,3.98-1.59c1.54-0.42,3.21-0.64,5.02-0.64c3.98,0,7.12,1.18,9.43,3.54c2.31,2.36,3.46,5.51,3.46,9.43
		c0,2.55-0.7,5.03-2.11,7.44c-1.41,2.42-3.65,4.23-6.73,5.45c-4.14,1.65-8.19,3.21-12.14,4.7c-3.95,1.49-7.48,3.28-10.59,5.37
		c-3.1,2.1-5.61,4.68-7.52,7.76c-1.91,3.08-2.87,7.03-2.87,11.86c0,3.98,0.57,7.35,1.71,10.11
		C646.93,499.72,648.44,501.97,650.33,503.69z M668.52,473.2c0.74-2.42,1.75-4.44,3.03-6.09c1.27-1.64,2.75-2.89,4.42-3.74
		c1.67-0.85,3.44-1.27,5.29-1.27c1.33,0,2.41,0.35,3.26,1.04c0.85,0.69,1.27,1.7,1.27,3.03v19.43c0,1.38-0.27,2.76-0.8,4.14
		c-0.53,1.38-1.25,2.63-2.15,3.74c-0.9,1.12-1.96,2.03-3.18,2.75c-1.22,0.72-2.52,1.08-3.9,1.08c-1.11,0-2.18-0.24-3.18-0.72
		c-1.01-0.48-1.9-1.31-2.67-2.51c-0.77-1.19-1.38-2.8-1.83-4.82c-0.45-2.02-0.68-4.56-0.68-7.64
		C667.4,478.41,667.78,475.61,668.52,473.2z"/>
	<path d="M717.92,433.51c0.56-0.32,1.34-0.48,2.35-0.48c1.54,0,3.3,1.39,5.29,4.18c1.99,2.79,4.06,6.49,6.21,11.11
		c2.15,4.62,4.35,9.91,6.61,15.88c2.26,5.97,4.46,12.17,6.61,18.59c2.15,6.42,4.19,12.81,6.13,19.15
		c1.94,6.34,3.65,12.19,5.13,17.55c-2.55,2.71-5.13,5.16-7.76,7.36c-2.63,2.2-5.25,4.07-7.88,5.61c-2.63,1.54-5.24,2.72-7.84,3.54
		c-2.6,0.82-5.1,1.23-7.48,1.23c-1.86,0-3.32-0.5-4.38-1.51c-1.06-1.01-1.96-2.11-2.71-3.3c-0.74-1.19-1.45-2.3-2.11-3.3
		c-0.66-1.01-1.5-1.51-2.51-1.51c-0.85,0-1.64,0.22-2.39,0.68c-0.74,0.45-1.38,1.05-1.91,1.79c-0.53,0.74-0.96,1.59-1.27,2.55
		s-0.48,1.94-0.48,2.95c0,2.65,1.27,4.76,3.82,6.33s6.16,2.35,10.83,2.35c6.1,0,12.14-1.3,18.11-3.9c5.97-2.6,11.64-6.24,17-10.91
		c5.36-4.67,10.32-10.28,14.89-16.84c4.56-6.55,8.5-13.8,11.82-21.73c3.32-7.93,5.92-16.43,7.8-25.48
		c1.88-9.05,2.83-18.43,2.83-28.14c0-1.91-0.03-3.63-0.08-5.17c-0.05-1.54-0.27-2.85-0.64-3.94c-0.37-1.09-0.94-1.92-1.71-2.51
		c-0.77-0.58-1.87-0.88-3.3-0.88c-0.64,0-1.42,0.07-2.35,0.2c-0.93,0.13-1.84,0.36-2.75,0.68c-0.9,0.32-1.67,0.76-2.31,1.31
		c-0.64,0.56-0.96,1.23-0.96,2.03c0,0.8,0.19,1.71,0.56,2.75c0.37,1.03,0.8,2.28,1.27,3.74c0.48,1.46,0.9,3.22,1.27,5.29
		c0.37,2.07,0.56,4.57,0.56,7.48c0,8.17-1.01,16.12-3.03,23.84c-2.02,7.72-4.67,15.04-7.96,21.93c-1.86-6.42-3.7-12.57-5.53-18.43
		s-3.65-11.32-5.45-16.36c-1.8-5.04-3.6-9.61-5.37-13.69c-1.78-4.09-3.49-7.59-5.14-10.51c-2.28-3.93-4.82-6.62-7.6-8.08
		c-2.79-1.46-5.8-2.19-9.04-2.19c-2.97,0-5.52,0.25-7.64,0.76c-2.12,0.5-3.98,1.15-5.57,1.95c-1.59,0.8-2.97,1.67-4.14,2.63
		c-1.17,0.96-2.28,1.88-3.34,2.79l1.59,1.99C716.71,434.28,717.36,433.83,717.92,433.51z"/>
	<path d="M810.83,503.29c2.31,1.51,4.95,2.79,7.92,3.82c2.97,1.03,6.29,1.55,9.95,1.55c4.19,0,8-0.54,11.42-1.63
		c3.42-1.09,6.34-2.67,8.76-4.74c2.42-2.07,4.27-4.59,5.57-7.56c1.3-2.97,1.95-6.37,1.95-10.19c0-3.4-0.76-6.58-2.27-9.55
		c-1.51-2.97-3.4-5.77-5.65-8.4c-2.26-2.63-4.7-5.12-7.32-7.48c-2.63-2.36-5.07-4.64-7.32-6.85c-2.26-2.2-4.14-4.33-5.65-6.37
		c-1.51-2.04-2.27-4.1-2.27-6.17c0-1.49,0.24-2.77,0.72-3.86c0.48-1.09,1.14-1.99,1.99-2.71c0.85-0.72,1.82-1.23,2.91-1.55
		c1.09-0.32,2.24-0.48,3.46-0.48c2.49,0,4.54,0.44,6.13,1.31c1.59,0.88,2.39,2.06,2.39,3.54c0,0.48-0.28,0.86-0.84,1.15
		c-0.56,0.29-1.18,0.64-1.87,1.03c-0.69,0.4-1.31,0.92-1.87,1.55c-0.56,0.64-0.84,1.51-0.84,2.63c0,1.7,0.6,3.04,1.79,4.02
		c1.19,0.98,2.93,1.47,5.21,1.47c2.39,0,4.25-0.74,5.57-2.23c1.33-1.49,1.99-3.24,1.99-5.25c0-2.6-0.57-4.88-1.71-6.85
		c-1.14-1.96-2.76-3.59-4.86-4.9c-2.1-1.3-4.61-2.27-7.52-2.91c-2.92-0.64-6.16-0.96-9.71-0.96c-3.08,0-6.06,0.41-8.96,1.23
		c-2.89,0.82-5.47,2.06-7.72,3.7c-2.26,1.65-4.06,3.72-5.41,6.21c-1.35,2.5-2.03,5.41-2.03,8.76c0,2.97,0.66,5.84,1.99,8.6
		c1.33,2.76,3,5.44,5.02,8.04c2.02,2.6,4.19,5.12,6.53,7.56c2.33,2.44,4.51,4.8,6.53,7.08c2.02,2.28,3.69,4.5,5.02,6.65
		c1.33,2.15,1.99,4.23,1.99,6.25c0,3.61-1.22,6.33-3.66,8.16s-5.57,2.75-9.39,2.75c-1.54,0-3.05-0.25-4.54-0.76
		c-1.49-0.5-2.88-1.15-4.18-1.95c-1.3-0.8-2.48-1.66-3.54-2.59c-1.06-0.93-1.94-1.79-2.63-2.59l-2.79,1.99
		c0.9,1.38,2.18,2.92,3.82,4.62C806.54,500.17,808.52,501.78,810.83,503.29z"/>
	<path d="M477.1,589.62l-82.19,35.58l-26.44,6.08l-74.45-3.01c-3.17-8.17-10.17-13.01-10.17-13.01c2.71,4.48,4.41,8.78,5.39,12.82
		l-7.13-0.29c0,0-7.31,2.9-7.65,11.62c-0.34,8.72,11.47,7.56,11.47,7.56l3.14-0.09c-2.14,8.05-6.22,12.94-6.22,12.94
		c4.97-4.6,8.2-8.97,10.16-13.05l76.87-2.1l20.34-2.99c0,0,0,0,18.84-4.47s76.15-30.28,76.15-30.28l239.64,2.45c0,0,0,0,41.64,1.61
		c41.64,1.61,120.62,37.76,120.62,37.76c22.69-14.85,36.41-36.33,36.41-36.33C744.73,582.23,477.1,589.62,477.1,589.62z"/>
	<path d="M262.94,613.92l-6.88,0.07c-4.71,7.25-9.35,17.49-8.07,28.51c0.81,6.97,3.91,13.52,9.22,19.61c2.63-0.08,5.13-0.1,7.2-0.04
		c-5.53-6.54-8.66-13.56-9.33-21.01C254.14,630.49,258.28,621.01,262.94,613.92z"/>
	<path d="M239.85,614.15l-3.98,0.04l-9.41-8.89l-42.55-19.95l12.13,11.58c0,0-5.58,7.1-16.15-4.8c-10.57-11.9-36.9-14.88-36.9-14.88
		l17.35,14.57c0,0,0,0-16.77-5.21s-24.32,2.84-24.32,2.84c9.03-3.48,31.55,5.96,31.55,5.96c-16.16,12.26-41.18,1.16-41.18,1.16
		l-7.76-11.4l-0.47,9.57l-7.85-9.21l-0.6,5l-7.62-4.12l2.44,9.24l-11.27-6.08l2.66,10.28c0,0,14.97,55.67,60.85,76.02
		c45.88,20.35,78.31-2.3,78.31-2.3c15.61,0.85,20.33-10.41,20.33-10.41s0.28-0.02,0.76-0.06c-3.7-5.45-5.98-11.3-6.79-17.51
		C231.31,635.75,233.82,624.91,239.85,614.15z"/>
	<path d="M250.61,614.04l-5.46,0.05c-0.18,0.3-0.36,0.59-0.54,0.89c-4.27,7.23-9.04,18.32-7.5,30.04c0.83,6.3,3.39,12.21,7.63,17.7
		c2.01-0.13,4.35-0.27,6.79-0.39c-4.55-6.02-7.26-12.47-8.06-19.34C242.18,631.86,246.1,621.7,250.61,614.04z"/>
	<path d="M281.53,613.73l-12.94,0.13c-4.9,6.68-9.91,16.27-8.96,26.8c0.72,7.96,4.73,15.44,11.95,22.37
		c3.47,0.11,6.47-1.75,6.47-1.75C248.33,630.03,281.53,613.73,281.53,613.73z"/>
</g>
</svg>
