<svg id="Layer_1" data-name="Layer 1" xmlns="http://www.w3.org/2000/svg" viewBox="0 0 710.67534 504.5576">
  <title>harry-potter-hat- flying-broomstick</title>
  <g>
    <path d="M747.69406,591.7132c-3.97851-4.34891-5.98932-8.493-6.92434-15.15985-.80411-5.73417,2.20211-5.09793,3.9649-6.9157-5.47925-5.818-5.961-6.63463-5.12375-8.50037,2.39666-5.34011,1.68653-7.5527-3.831-10.04506-6.933-3.13174-1.05256-4.48059.52228-6.17068-3.971-1.9501-9.04555-3.07741-11.73959-6.2355-1.85839-2.17845,4.07411-2.55123,5.19105-4.92585-2.65958-2.49053-8.07412,1.80934-8.94985-3.03031-.55339-3.05882,4.11808-1.74108,6.10123-3.07535-4.77354-9.76389-8.67622-12.37215-19.27533-11.88163-19.07538.88264-37.32332,6.00682-55.2203,12.11949-27.86913,9.51879-55.60745,19.12929-86.92364,12.6758a71.94227,71.94227,0,0,1,12.21078,22.7712c1.62484-6.76382-2.2774-12.39386-.56636-18.81105a40.2214,40.2214,0,0,1,5.6214,23.27015c-.53859,7.52818,2.1804,11.69951,9.126,13.70718a23.50968,23.50968,0,0,1,3.5205,1.62831c1.63965.79028,3.72607,1.58229,2.90543,3.83754-.67686,1.86012-2.694,2.26952-4.63171,2.17122-4.25872-.21647-7.75546-2.55015-11.60326-4.18127-2.62944,4.3083-5.27,8.635-8.63874,14.15461,15.55023-2.10036,28.40307,2.43651,40.95227,8.455,4.19564,2.01242,8.48644,3.85806,12.83535,5.51337,27.14864,10.3337,55.0586,16.55569,84.315,15.31691,4.59294-.19444,5.23685-.50813,4.81243-1.4276-2.43435-5.274,1.80093-4.62134,4.42216-5.04759,6.16031-1.00179,18.61013-11.13953,19.98318-17.6722.94216-4.48264,1.90236-8.29037,6.342-10.26974C748.38972,593.40567,748.518,592.61388,747.69406,591.7132Z" transform="translate(-37.53706 -124)"/>
    <path d="M547.21493,574.27088c-.26076-4.80131.35874-9.9081-2.01588-14.45156-2.47951-4.74427-.11105-10.21876-2.5157-14.962-.70148-1.38374.21227-3.19179-2.90651-3.24818-12.58625-.22749-25.75095,7.39175-30.43862,19.02148-1.88107,4.66714-4.74427,5.30878-9.03107,5.06293a690.03714,690.03714,0,0,0-79.58482.12746c-16.383.9521-32.40211,3.14233-47.50254,10.47953-14.88515,7.23263-30.14416,13.71928-45.397,20.15947-5.40028,2.2801-10.97145,3.63382-17.30719,2.47973-48.95035-8.91733-97.878-17.89083-146.53747-28.35156-33.75032-7.25553-65.00666-19.18966-91.28076-42.362C58.58121,515.77646,56.892,516.02977,44.43558,530.331a57.07982,57.07982,0,0,0-5.24884,7.64074c-2.65742,4.306-2.4161,7.61211,3.0369,9.6523,5.81194,2.17446,11.32435,5.16209,17.16071,7.2564,80.54641,28.90278,163.9059,46.002,248.1651,59.53357,14.67612,2.357,27.5307-.11709,40.353-6.86925,13.0502-6.87185,26.42327-13.14829,39.79321-19.38972,9.59981-4.48135,19.123-9.6981,29.72029-11.09719,29.06362-3.83689,58.155-1.3831,87.2208.60146,3.41086.23289,5.37446,1.511,6.90835,4.94217,4.69318,10.49788,13.78766,15.746,24.43861,18.68953,1.37846.38088,3.76636,1.2122,4.12445-.232C542.3325,592.08652,550.447,584.72059,547.21493,574.27088Z" transform="translate(-37.53706 -124)"/>
    <path d="M567.26466,567.161c.3933-8.79623-.93006-15.84307-3.99439-24.60734-.45131-1.291-.8323-1.57775-1.82533-1.42976a2.732,2.732,0,0,0-1.81659.8902C556.5597,547.3169,561.11968,563.29381,567.26466,567.161Z" transform="translate(-37.53706 -124)"/>
    <path d="M564.12817,599.73309c3.04716.27826,7.0099.98,7.17485-2.40821.30569-6.28011,4.01977-12.71944.50542-19.07128C569.33455,585.51108,566.92385,592.5132,564.12817,599.73309Z" transform="translate(-37.53706 -124)"/>
    <path d="M561.80594,571.57338c1.35933,10.85868.056,20.51444-4.77192,29.73206,7.20325-6.36631,7.06153-15.80667,9.59634-24.14955C567.698,573.642,564.5137,573.29,561.80594,571.57338Z" transform="translate(-37.53706 -124)"/>
    <path d="M544.54563,601.86823c8.97566-1.34767,13.48347-23.65762,7.73731-36.50777C555.07506,578.45862,553.0379,590.60448,544.54563,601.86823Z" transform="translate(-37.53706 -124)"/>
    <path d="M550.71318,556.64611q1.18349-.14,2.36674-.2801c-1.66114-5.19148-.01372-9.99635.88728-14.99339-5.17149-1.8384-7.2295-.59357-5.52094,5.12926C549.43508,549.81369,549.97259,553.2602,550.71318,556.64611Z" transform="translate(-37.53706 -124)"/>
  </g>
  <path d="M612.995,400.30448c-8.11668.22943-15.6562,2.49106-23.07582,5.575-7.99332,3.32239-16.012,6.62275-24.17569,9.488-17.98361,6.31176-18.25723,6.33585-27.91515-9.975-17.34154-29.28755-32.99115-59.42588-43.24512-92.038-2.64673-8.41773-5.70307-16.98129-1.33989-25.99649,1.2068-2.49344.61323-5.64916-1.07567-8.10015-12.02822-17.45615-19.66032-37.1789-28.96285-56.038-3.82425-7.75286-3.37262-9.03766,3.95367-13.51771,1.39984-.856,2.81016-1.69744,4.18062-2.59887,9.2308-6.072,9.47623-6.71479,6.41157-17.29315-1.48269-5.1177-1.10883-8.42184,5.64668-8.84215,12.62513-.78552,25.21214-2.23657,37.799-3.56263,6.49766-.68453,13.12679-.82841,19.20317-3.76592,2.5992-1.25661,5.24581-2.64414,5.56058-5.79813.33314-3.33762-2.388-4.9319-4.81588-6.33466-7.98619-4.61432-16.70163-7.51845-25.49084-10.04528-17.65934-5.07708-34.86175-10.88848-49.177-23.146-4.647-3.97905-10.53008-4.95988-16.62007-3.94114-13.14321,2.19866-26.25574,4.55524-38.92959,8.80769-7.939,2.66379-15.60543,6.36653-19.81284,13.79317-7.01768,12.387-9.993,26.36278-11.68331,40.25706-1.24008,10.19305-1.53767,12.34774-11.93726,13.01963-5.42577.35052-8.43285,2.54875-10.53353,7.49944-6.12132,14.426-12.26727,28.82263-16.50935,43.94986-1.94848,6.94843-6.34881,12.8563-12.61769,15.25382-6.88416,2.633-7.27617,6.96118-6.8524,12.56173.26541,3.50787.32212,7.11176,1.20692,10.47963,6.47638,24.65584,3.75242,48.85184-3.20563,72.89542a15.06392,15.06392,0,0,0-.8673,5.48475c.79385,7.78278-5.33125,18.444-12.90556,19.4554-6.19077.82668-6.06882,4.00087-6.23042,8.44517-.52174,14.354,2.02485,28.5394,2.1508,42.84091.14864,16.87835-5.31235,22.39356-22.33922,21.99518-15.93144-.37267-31.6706-3.67141-47.65551-3.5757-2.11386,0-4.23193-.08847-6.34082.01436-14.031.6841-28.153,1.17279-40.96254,7.91209-14.51615,7.63728-16.93451,24.11109-5.54448,35.92251,4.66984,4.84257,10.39407,7.96664,16.53073,10.39235,19.67,7.77523,40.44847,9.51836,61.24927,10.90027,39.61487,2.63192,77.72135-5.50561,115.64807-15.80689,51.85071-14.08321,102.32631-33.8119,157.06765-36.06337,24.28414-.99887,47.85124-8.244,71.30924-14.63692,12.40391-3.3804,24.69213-7.30911,35.98376-13.65371,4.03608-2.26779,8.09961-4.57068,8.30344-10.37C645.03764,413.39745,631.686,399.776,612.995,400.30448ZM411.11011,152.34311c2.57294-1.48572,3.87989.63732,5.11046,2.8444,3.755,6.73444,7.49437,13.33689,7.78819,21.42267a7.70436,7.70436,0,0,0,5.59687,7.3991c4.38446,1.24591,8.00078,1.296,7.56923-5.07568-.29511-4.35972-.05649-8.75562-.05649-15.10054,1.88647,2.11742,2.93762,2.74394,2.96452,3.41172.32471,8.067,6.07714,12.77129,10.84582,18.17028,1.92979,2.18483,5.484,4.77484.146,7.52883-3.34,1.72314.5306,3.99428-.08015,6.52261-3.06152.23862-4.1454-2.08188-5.56933-4.05661-5.45764-7.569-8.35162-7.50593-13.31139.13481a40.387,40.387,0,0,1-2.564,3.20876c-3.02739-1.23522-1.75837-3.68567-1.89674-5.50312-.18374-2.413-.23635-4.80314-2.55491-6.16647-5.67454-3.33676-7.78386-8.42475-7.51133-14.74288.25385-5.88389-3.80179-9.85787-6.37214-14.48926C410.18329,155.993,408.64346,153.76747,411.11011,152.34311ZM366.52,271.149c1.80038-5.81357,7.14643-3.077,10.89659-2.39255,17.1512,3.13044,29.18731,13.84156,39.72073,26.99762,6.14271,7.672,13.20392,14.60289,19.72588,21.97866,3.84522,4.34869,7.82924,5.01,13.03573,2.16765,9.28017-5.06628,17.87581-11.17086,26.809-16.75963,2.25687-1.41184,4.80465-4.149,7.50387-2.30819,2.904,1.98023,1.62474,5.64289,1.16738,8.53029-1.29517,8.17436-8.0928,12.36643-13.45052,17.44805-7.05408,6.69069-7.22583,6.50987-.43857,13.43972.80648.82355,1.75145,1.57775,1.34713,3.34378-5.084-.13945-9.08563-3.09479-13.27348-5.4383-3.8692-2.16517-7.53715-4.68994-11.40667-6.85446-6.04473-3.38126-11.87461-3.0707-17.88574.64942-10.60332,6.56205-21.44547,12.738-32.1877,19.0756,2.41621-6.86472,7.92008-9.7425,13.25652-12.866,2.50328-1.46519,6.15362-2.423,5.07622-6.49139-.9832-3.71332-2.72957-7.05549-7.2807-7.4853-.6989-.066-1.38645-.31888-2.08264-.33454-8.63885-.19433-15.20781-3.56036-19.09461-11.69368-3.73471-7.8154-9.95714-13.48012-17.09742-18.1303-3.66319-2.38564-4.9063-4.3083.23733-6.21152a13.15035,13.15035,0,0,0,2.49117-1.28869c5.74335-3.6794,5.58716-4.83025-.15155-8.23744C370.55124,276.57386,364.99217,276.08237,366.52,271.149Zm-5.962,134.61673c-2.20881.71974-4.48416,1.23533-6.72851,1.846l-.00032.00011c-9.18176,5.435-20.59167,6.613-28.30705,14.89638-1.416,1.52028-2.57953.19746-3.23273-1.10289-1.33665-2.66077-3.90647-4.65267-4.62-9.18889,12.90783,4.39925,23.53231-1.42555,34.42469-6.00941,24.66481-12.37248,49.16456-25.1024,74.55786-35.94444,11.49038-4.90587,23.951-3.74584,36.05731-4.65926a27.33136,27.33136,0,0,0,2.8107-.04861c14.66684-2.68615,26.20378,1.36409,34.442,14.5384,2.04591,3.27184,4.80595,7.68935,11.25673,5.62583,3.24149-1.03689,6.03836,3.94362,5.70836,7.34239-.40227,4.14194-3.74756,1.07491-5.48486.71045C459.955,382.9691,409.893,389.68874,360.558,405.76568Zm265.53278,33.34438c-26.02792,9.49146-53.15387,14.80575-80.14382,20.596-8.65085,1.8559-17.36855,3.41551-26.0842,4.94811-4.048.71185-8.24425,1.8101-12.80716-1.58305,8.95611-5.89166,18.36212-9.87277,27.45488-14.36751,17.61775-8.70874,35.35194-17.1821,53.05179-25.72427,8.67093-4.18462,17.51361-7.76162,27.39114-7.769,4.78078-.00357,9.37522.63494,13.28341,3.5892,4.3002,3.25056,7.55973,7.656,7.20758,13.00656C635.12112,436.71859,629.86127,437.73507,626.09081,439.11006Z" transform="translate(-37.53706 -124)"/>
</svg>
