<svg xmlns="http://www.w3.org/2000/svg" xmlns:xlink="http://www.w3.org/1999/xlink" xml:space="preserve" version="1.1" style="shape-rendering:geometricPrecision;text-rendering:geometricPrecision;image-rendering:optimizeQuality;" viewBox="0 0 60000 75000" x="0px" y="0px" fill-rule="evenodd" clip-rule="evenodd"><defs><style type="text/css">
   
    .fil0 {fill:black;fill-rule:nonzero}
   
  </style></defs><g><path class="fil0" d="M51883.53 30828.9l-0.49 0.22c-489.3,216.32 -830.91,651.07 -987.65,1179.16 -163.81,551.88 -128.27,1203.07 145.44,1822.71l0.31 0.71c273.45,618.62 730.14,1082.62 1247.49,1332.76 496.87,240.22 1049.29,280.55 1539.44,64.04l0.49 -0.22c489.3,-216.33 830.91,-651.07 987.65,-1179.16 163.81,-551.88 128.27,-1203.07 -145.44,-1822.71l-0.31 -0.7c-273.44,-618.62 -730.13,-1082.63 -1247.49,-1332.77 -496.87,-240.22 -1049.29,-280.55 -1539.44,-64.04zm-5915.83 3500.55c1523.85,1811.04 3305.6,3162.88 5096.57,3879.93 1574.66,630.45 3154.28,767.14 4564.71,287.97 -324.05,-933.72 -740.62,-1824.04 -1238.71,-2659.9 -77.08,44.7 -157.19,85.59 -240.31,122.31l-77.81 34.37 -4.11 0c-692.37,276.61 -1450.55,215.8 -2126.29,-110.91 -681.8,-329.64 -1279.74,-932.48 -1632.18,-1730.34l-34.37 -77.81 0 -2.6c-320.33,-773.49 -353.47,-1588.3 -145.43,-2289.19 40.06,-134.97 89.01,-265.77 146.48,-391.39 -1165.06,-823.12 -2456.28,-1478.96 -3838.73,-1932.53 -1424.86,-467.5 -2948.39,-720.38 -4532.48,-720.38 -1214.74,0 -2393.91,148.76 -3520.3,428.94 3061.06,984.28 5595.59,2707.38 7273.72,4765.29 106.61,130.74 209.6,262.89 309.24,396.24zm9816.79 4642.34c-1526.23,517.55 -3222.99,374.22 -4905.76,-299.51 -1291.82,-517.2 -2576.59,-1348.82 -3768.47,-2434.14 776.57,1692.8 1003.81,3496.38 543.12,5241.12 -678.18,2568.41 -2715.44,4512.05 -5460.98,5578.18 -2718.7,1055.7 -6136.63,1250.21 -9609.31,333.26 -1090.17,-287.85 -2121.12,-667.99 -3079.26,-1123.81 -707.73,-336.69 -1376.56,-715.19 -2001.01,-1128.78 420.59,3259.9 1921.94,6181.07 4133.23,8392.36 2628.03,2628.03 6258.68,4253.51 10268.99,4253.51 4010.33,0 7640.97,-1625.49 10268.99,-4253.51 2628.02,-2628.02 4253.51,-6258.66 4253.51,-10268.99 0,-1365.02 -187.45,-2684.07 -537.92,-3932.91 -33.55,-119.56 -68.61,-238.49 -105.13,-356.78zm-28350.59 5516.34c699.5,491.57 1463.4,937.75 2282.83,1327.58 931.79,443.28 1933.97,812.86 2993.32,1092.57 3368.96,889.56 6677.3,703.78 9302.67,-315.68 2598.54,-1009.05 4523.27,-2835.56 5158.24,-5240.3 635.03,-2404.97 -137.26,-4943.92 -1899.22,-7104.63 -1753.03,-2149.76 -4481.75,-3923.21 -7782.86,-4825.92 -92.33,29.42 -184.25,59.75 -275.76,90.96 -1455.02,496.31 -2805.8,1216.84 -4011.03,2120.27 1149.35,1224.13 2451.92,2730.19 4083.95,4650.94 483.23,-292.19 1049.82,-460.38 1655.68,-460.38 884.87,0 1686.01,358.7 2265.94,938.63 579.93,579.93 938.63,1381.07 938.63,2265.94 0,884.87 -358.7,1686.01 -938.63,2265.94 -579.93,579.93 -1381.07,938.63 -2265.94,938.63 -884.87,0 -1686.01,-358.7 -2265.94,-938.63 -303.65,-303.65 -546.61,-667.97 -709.21,-1073.18 -1141.74,-223.38 -2180.21,-479.21 -3188.41,-727.59 -1521.83,-374.93 -2973.63,-732.5 -4619.99,-931.94 -242.23,709.13 -431.53,1446.27 -563.02,2206.7 -139.76,808.2 -212.61,1641.29 -212.61,2493.44 0,413.17 17.49,822.24 51.36,1226.65zm25518.58 4813.88c73.34,-116.49 227.26,-151.47 343.75,-78.13 116.49,73.34 151.47,227.26 78.13,343.75 -361.06,572.15 -767.08,1117.13 -1214.76,1629.13 -444.74,508.62 -928.89,983.22 -1449.22,1418.07 -105.71,88.45 -263.12,74.46 -351.57,-31.25 -88.45,-105.71 -74.46,-263.12 31.25,-351.57 503.29,-420.61 969.16,-876.89 1394.54,-1363.37 429.84,-491.59 820.19,-1015.67 1167.88,-1566.63zm-7706.47 -31269.2c6.55,-19.03 15.19,-36.75 25.56,-53 -1080.21,-1329.26 -2295.15,-2429.69 -3761.08,-3502.6 -268.67,456.98 -536.17,962.6 -774.47,1477.47 -235.36,508.54 -440.91,1023.25 -589,1504.97 -485.34,1578.77 -579.02,3305.43 -67.2,4774.78 430.03,1234.53 1291.91,2290 2715.25,2921.79 22.96,10.15 43.61,23.36 61.71,38.92 861.63,356.41 1743.09,751.47 2626.35,1236.31 -297.03,-517 -520.31,-1113.95 -679.32,-1742.69 -374.9,-1482.44 -395.77,-3153.4 -185.71,-4349.46 61.34,-349.32 145.77,-713.82 246.1,-1082.63 107.9,-396.61 238.73,-810.6 381.81,-1223.86zm387.44 407.59c-102.77,309.54 -199.78,627.18 -286.83,947.13 -96.98,356.48 -178.12,706.14 -236.34,1037.71 -199.82,1137.76 -179.55,2728.93 177.91,4142.42 279.37,1104.71 762.56,2093.14 1504.04,2648.37 10.87,8.15 20.88,17.04 30.02,26.52 1228.11,821.04 2442.03,1866.81 3592.87,3276.2 99.13,66.34 197.45,133.79 294.92,202.36 232.42,-262.28 518.06,-476.13 851.6,-623.47l77.8 -34.37 4.12 0c397.13,-158.66 815.9,-206.27 1228.36,-156.4 -4709.92,-14760.8 -6995.62,-16087 -17261.83,-22039.67 -2477.05,-1436.27 -5415.56,-3140.12 -9004.03,-5389.39 -307.89,-192.98 -536.17,-268.49 -699.26,-264.57 -52.87,1.27 -94.97,12.68 -127.47,31.61 -29.86,17.4 -54.38,42.91 -73.75,73.81 -54.2,86.47 -77.51,209.46 -74.36,340.47 12.6,523.48 82.99,1096.84 206.73,1711 3435.39,2147.44 6317.1,3818.38 8754.59,5231.71 7217.05,4184.68 10555,6120.13 13525.36,11903.3 62.56,122.43 14.03,272.4 -108.4,334.96 -122.43,62.56 -272.4,14.03 -334.96,-108.4 -647.83,-1261.3 -1315.5,-2336.23 -2041.09,-3291.3zm-4827.99 5935.03c-550.62,-574.15 -942.09,-1247.03 -1196.34,-1976.94 -548.85,-1575.65 -452.7,-3413.21 61.34,-5085.32 155.64,-506.29 369.2,-1041.92 612.44,-1567.47 251.21,-542.76 535.56,-1077.92 821.32,-1560.79 -1220.83,-863.33 -2612,-1720.73 -4234.81,-2678.23 -1105.38,1684.24 -1937.38,3767.99 -2039.83,5769.74 -82.34,1609.05 308.91,3164.83 1414.95,4410.32 28.17,28.78 56.37,57.54 84.61,86.23 1187.81,1206.99 2749.96,1910.78 4476.32,2602.46zm-6106.43 -4351.38c-308.54,-877.88 -416.39,-1817.56 -367.49,-2773.03 106.87,-2087.97 965.24,-4251.49 2106.83,-5997.84 -660.18,-387.21 -1357.17,-791.4 -2095.83,-1219.7 -705.01,-408.79 -1447.44,-839.27 -2231.06,-1297.5 -742.16,996.28 -1326.28,1960.47 -1537.79,3047.01 -214.32,1100.99 -49.26,2344.88 717.26,3904.25 1.78,3.64 3.46,7.3 5.05,10.99 1032.82,1477 2175.85,2937.52 3403.03,4325.82zm-4565.52 -6067.4c-184.31,-827.12 -185.57,-1571.27 -50.06,-2267.42 225.94,-1160.68 829.03,-2171.81 1595.69,-3206.45 -1693.9,-993.61 -3576.67,-2117.23 -5685.93,-3429.48 494.87,1964.31 1475.05,4280.48 2821.77,6694.93 407.27,730.17 847.89,1468.63 1318.53,2208.42zm20409.06 13289.79c46.92,129.44 -19.98,272.42 -149.42,319.34 -129.44,46.92 -272.42,-19.98 -319.34,-149.42 -218.85,-604.92 -436.61,-1185.44 -654.77,-1744.26 -216.74,-555.21 -430.74,-1080.54 -643.32,-1578.25 -53.93,-126.74 5.09,-273.22 131.83,-327.15 126.74,-53.93 273.22,5.09 327.15,131.83 216.64,507.22 432.56,1037.03 649.18,1591.93 215.21,551.27 434.36,1135.91 658.69,1755.98zm-2440.32 1998.56c-2256.47,-2020.09 -4676.59,-2975.55 -6884.91,-3847.14 -2086.07,-823.34 -3989.9,-1574.76 -5456.96,-3065.51 -3057.24,-3106.62 -5715.51,-6742.22 -7642.28,-10196.62 -2006.74,-3597.76 -3224.94,-7014.92 -3283.76,-9457.84 -6.66,-276.41 55.05,-555.84 196.24,-781.11 87.56,-139.68 203.05,-257.65 348.75,-342.55 143.09,-83.37 312.22,-133.15 508.71,-137.87 307.97,-7.41 687.04,102.6 1139.9,386.45 3526.03,2210.14 6486.54,3926.74 8982.15,5373.77 10608.73,6151.27 12874.09,7466 17790.39,23012.63 669.06,332.75 1254.4,929.42 1601.55,1715.31l34.37 77.8 0 2.61c320.33,773.49 353.47,1588.3 145.43,2289.19 -116.89,393.85 -309.22,752.31 -569.25,1049.63 709.99,1169.89 1267.76,2442.12 1645.8,3789.2 370.82,1321.37 569.16,2712.9 569.16,4148.53 0,4231.16 -1715.05,8061.77 -4487.89,10834.61 -2772.84,2772.84 -6603.46,4487.89 -10834.61,4487.89 -4231.14,0 -8061.77,-1715.05 -10834.61,-4487.89 -2772.84,-2772.84 -4487.89,-6603.45 -4487.89,-10834.61 0,-894.02 77.13,-1772.1 225.11,-2627.82 127.15,-735.34 307.93,-1455.36 538.19,-2155.86 -1099.91,-92.81 -2297.21,-111.38 -3661.85,-18.42 -1528.54,104.12 -3058.02,138.96 -4575.13,-0.31 -1524.87,-139.98 -3029.78,-456.56 -4496.74,-1056.03 -4893.62,-1999.82 -8894.13,-6325.24 -10739.05,-12076.5 -1632.23,-5088.2 -1578.38,-11291.76 1039.98,-17981.13 171.02,-436.95 397.29,-763.75 660.14,-981.24 297.9,-246.49 636.64,-354.41 994.62,-326.32 333.34,26.17 673.19,174.22 999.57,441.78 435.37,356.91 855.75,939.56 1203.77,1739.06 638.92,1467.76 1176.22,2822.02 1669.09,4064.3 2342.85,5905.18 3656.52,9216.25 11288.43,12194.72 3879.62,1514.07 6092.73,2493.1 8217.99,4125.88 883.47,678.74 1745.67,1466.31 2700.91,2448.67 1291.85,-981.06 2743.71,-1761.78 4309.29,-2295.81 1553.62,-529.94 3218.11,-817.47 4948.18,-817.47 1667.51,0 3274.16,267.14 4779.36,761 483.73,158.71 956.78,340.85 1417.85,545.02zm-24366.97 -326.75c-31.03,120.77 -69.25,269.16 -107.79,418.79 -251.94,978.18 -517.31,2008.47 -666.51,3006.01 -373.63,2497.97 15.14,4759.08 3394.4,5264.53 14.99,2.19 29.48,5.66 43.36,10.31 2508.99,99.99 4474.62,584.15 6570.04,1100.39 886.95,218.51 1797.66,442.87 2785.8,645.64 -11.5,-110.38 -17.43,-222.4 -17.43,-335.81 0,-876.38 351.89,-1670.59 922.03,-2249.14 -3264.81,-3842.03 -5190.11,-5999.24 -7196.9,-7541 -2047.15,-1572.77 -4214.63,-2529.76 -8024.23,-4016.5 -7953.1,-3103.82 -9313.05,-6531.52 -11738.43,-12644.72 -485.38,-1223.38 -1014.5,-2557.03 -1659.73,-4039.3 -296.01,-680.02 -636.74,-1161.81 -978.77,-1442.2 -194.84,-159.73 -383.59,-247 -555.81,-260.52 -147.56,-11.58 -291.44,36.42 -422.74,145.06 -160.81,133.05 -306.27,350.94 -425.76,656.24 -133.99,342.3 -260.68,683.16 -380.99,1022.67 222.39,133.8 442.41,326.48 652.63,577.1 274.73,327.51 536.6,758.45 768.15,1290.35 640.17,1470.64 1175.91,2820.95 1667.34,4059.61 2358.33,5944.18 3680.68,9277.14 11372.8,12279.1 971.81,379.26 1837.37,704.35 2632.57,1003 769.71,289.08 1474.42,553.75 2122.37,809.33 128.36,50.15 191.75,194.88 141.6,323.24 -50.15,128.36 -194.88,191.75 -323.24,141.6 -188.5,-74.35 -379.87,-148.76 -574.76,-223.78zm809.05 8696.87c-2180.66,-992.27 -2416.06,-3080.76 -2077.49,-5344.33 151.08,-1010.13 421.5,-2060.01 678.23,-3056.79 32.74,-127.11 65.35,-253.72 121.31,-474.95 -344.53,-130.85 -701,-264.73 -1072.85,-404.39 -805.85,-302.65 -1683.01,-632.09 -2638.43,-1004.96 -156.94,-61.25 -311.26,-122.63 -463.06,-184.16 -2.99,11.5 -6.84,22.93 -11.59,34.21 -264.67,624.46 -540.62,1342.42 -771.21,2065.21 -188.88,592.03 -347.9,1190.58 -445.71,1747.49 -203.76,1160.11 -279.65,2603.99 7.19,3870.39 214.97,949.12 633.82,1796.6 1357.26,2338.31 165.27,123.76 353.53,232.79 568.37,323.13 215.37,90.58 459.98,162.6 737.91,212.12 11.75,2.05 23.15,4.91 34.19,8.48 1012.47,25.91 2035.9,-12.45 3062.42,-82.38 312.89,-21.31 617.1,-36.95 913.46,-47.38zm-5922.86 -10628.73c4.29,-10.2 9.2,-19.95 14.64,-29.25 -1689.89,-712.19 -3052.83,-1446.42 -4179.91,-2230.8 -314.01,506.36 -634.68,1090.32 -916.96,1688.52 -256.04,542.6 -480.28,1095.86 -638.97,1612 -244.72,796.01 -391.8,1617.85 -431.86,2454.35 -39.02,814.7 23.33,1643.51 195.67,2476.13 153.24,740.45 399.8,1488.15 774.8,2153.87 316.49,561.87 724.29,1063.87 1244.47,1450.41 7.29,5.4 14.18,11.13 20.7,17.14 69.17,29.41 138.52,58.36 208.07,86.78 1327.17,542.34 2693.78,840.28 4082.53,981.73 -22.15,-15.67 -43.97,-31.57 -65.49,-47.68 -830.11,-621.58 -1305.62,-1571.51 -1544.76,-2627.37 -303.61,-1340.44 -225.8,-2854.4 -13.05,-4065.71 100.42,-571.78 265.89,-1193.22 463.29,-1811.95 236.32,-740.76 517.65,-1473.07 786.83,-2108.17zm-4577.45 -2542.49c2.06,-3.31 4.19,-6.54 6.37,-9.72 -1488.44,-1108.46 -2542.87,-2320.51 -3408.49,-3711.76 -1269.92,1465.91 -2535.31,3867.17 -2933.73,6307.39 -303.86,1861.07 -100.57,3740.25 999.69,5226.68 1365.27,1515.8 2946.99,2761.97 4675.59,3688.76 -138.65,-188.31 -265.07,-385.66 -380.11,-589.9 -401.01,-711.9 -664.27,-1509.52 -827.54,-2298.41 -180.93,-874.1 -246.38,-1744.09 -205.43,-2599.17 42.09,-878.88 196.49,-1741.91 453.34,-2577.39 166.46,-541.42 399.46,-1117.06 664.35,-1678.42 294.82,-624.79 629.45,-1233.28 955.96,-1758.06zm-3728.31 -4107.55c18.62,-21.15 40.02,-38.4 63.18,-51.68 -787.12,-1356.65 -1427.25,-2881.58 -2129.77,-4640.03 -1373.15,1148.9 -2529.08,2623.83 -3201.97,4311.2 -609.98,1529.63 -823.16,3236.27 -440.49,5035.08 1.5,7.1 2.67,14.19 3.55,21.26 7.45,23.51 14.71,47.14 22.24,70.6 647.01,2016.96 1568.74,3850.39 2705.92,5458.7 -313.32,-1141.3 -321.53,-2372.04 -122.38,-3591.75 419.37,-2568.57 1763.01,-5095.74 3099.72,-6613.38zm-6362.22 2037.59c83.23,-907.71 302.65,-1778.91 630.76,-2601.7 726.07,-1820.7 1983.78,-3401.45 3471.17,-4614.01 -51.06,-128.5 -102.4,-257.86 -154.38,-388.87 -486.81,-1227 -1017.5,-2564.6 -1661.48,-4043.99 -211.38,-485.58 -447.82,-875.85 -693.93,-1169.25 -145.36,-173.29 -292.39,-310.92 -437.74,-412.55 -1614.07,4791.38 -1881.09,9285.02 -1154.4,13230.37zm29210.57 12152.69c95.46,99.24 92.4,257.08 -6.84,352.54 -99.24,95.46 -257.08,92.4 -352.54,-6.84 -843.5,-874.12 -1609.88,-1597.91 -2339.28,-2212.84 -726.48,-612.48 -1414.94,-1115.78 -2105.42,-1551.31 -116.49,-73.34 -151.47,-227.26 -78.13,-343.75 73.34,-116.49 227.26,-151.47 343.75,-78.13 711.25,448.63 1418.36,965.33 2162.06,1592.33 740.81,624.56 1519.36,1359.84 2376.4,2248zm7477.98 2801.16c-435.11,-435.11 -1036.28,-704.25 -1700.32,-704.25 -664.04,0 -1265.21,269.14 -1700.32,704.25 -435.11,435.11 -704.25,1036.28 -704.25,1700.32 0,664.04 269.14,1265.21 704.25,1700.32 435.11,435.11 1036.28,704.25 1700.32,704.25 664.04,0 1265.21,-269.14 1700.32,-704.25 435.11,-435.11 704.25,-1036.28 704.25,-1700.32 0,-664.04 -269.14,-1265.21 -704.25,-1700.32z"/></g><text x="0" y="60015" fill="#000000" font-size="5px" font-weight="bold" font-family="'Helvetica Neue', Helvetica, Arial-Unicode, Arial, Sans-serif">Created by Olena Panasovska</text><text x="0" y="60020" fill="#000000" font-size="5px" font-weight="bold" font-family="'Helvetica Neue', Helvetica, Arial-Unicode, Arial, Sans-serif">from the Noun Project</text></svg>